<svg width="170" height="171" viewBox="0 0 170 171" fill="none" xmlns="http://www.w3.org/2000/svg">
<g filter="url(#filter0_d_12_75)">
<path d="M81.8815 119.79C80.328 121.641 79.5838 123.988 79.7952 126.405C80.2314 131.391 84.6435 135.079 89.6138 134.644C94.5841 134.209 98.2874 129.796 97.8526 124.825C97.6411 122.409 96.5006 120.226 94.6493 118.673L61.1259 90.5293L66.9513 83.5869L100.475 111.73C104.029 114.712 106.446 119.065 106.883 124.051C107.755 134.022 100.376 142.815 90.405 143.688C80.434 144.56 71.6402 137.181 70.7679 127.21C70.3317 122.225 71.9583 117.534 74.9404 113.98L81.8815 119.79Z" fill="#3DD2CC"/>
<path d="M81.8819 119.79L80.543 118.666C78.6831 120.866 77.7977 123.701 78.049 126.573C78.569 132.516 83.8254 136.927 89.7685 136.407C95.7116 135.887 100.107 130.632 99.6023 124.688C99.351 121.815 97.9882 119.193 95.7732 117.334L63.5888 90.3139L67.1533 86.0658L99.3517 113.069C102.575 115.774 104.74 119.689 105.134 124.188C105.174 124.644 105.396 125.084 105.758 125.374C106.121 125.664 106.579 125.823 107.035 125.783C107.491 125.744 107.931 125.521 108.221 125.159C108.511 124.797 108.67 124.339 108.63 123.883C108.59 123.427 108.368 122.987 108.005 122.697C107.643 122.407 107.185 122.248 106.729 122.287C106.273 122.327 105.833 122.55 105.543 122.912C105.253 123.274 105.094 123.732 105.134 124.188C105.907 133.203 99.2482 141.122 90.2513 141.925C81.2364 142.698 73.3174 136.039 72.515 127.042C72.12 122.528 73.5889 118.31 76.2784 115.088L74.9395 113.964L73.816 115.303L80.7585 121.129L81.8819 119.79L80.543 118.666L81.8819 119.79L83.0054 118.451L76.063 112.626C75.7158 112.334 75.2426 112.177 74.7866 112.217C74.3306 112.256 73.8905 112.479 73.6006 112.841C70.3273 116.742 68.5416 121.891 69.0204 127.363C69.9778 138.307 79.6146 146.393 90.5584 145.436C101.502 144.478 109.588 134.842 108.631 123.898C108.591 123.442 108.369 123.002 108.007 122.712C107.644 122.422 107.186 122.263 106.73 122.303C106.274 122.343 105.834 122.565 105.544 122.927C105.254 123.29 105.095 123.748 105.135 124.204C105.175 124.66 105.397 125.1 105.76 125.39C106.122 125.679 106.58 125.839 107.036 125.799C107.492 125.759 107.932 125.536 108.222 125.174C108.512 124.812 108.671 124.354 108.631 123.898C108.154 118.441 105.5 113.665 101.599 110.392L68.0614 82.2645C67.3176 81.6404 66.208 81.7374 65.5838 82.4813L59.7584 89.4237C59.4672 89.7708 59.3094 90.2441 59.3493 90.7001C59.3892 91.1561 59.6115 91.5961 59.9739 91.8861L93.5263 120.012C95.0305 121.274 95.9335 123.018 96.1203 124.977C96.4713 128.99 93.4893 132.544 89.4765 132.895C85.4638 133.246 81.9099 130.264 81.5589 126.251C81.3873 124.29 81.9739 122.416 83.236 120.912C83.5412 120.548 83.685 120.092 83.6451 119.636C83.6039 119.164 83.3829 118.74 83.0206 118.45L81.8819 119.79Z" fill="#3DD2CC"/>
<path d="M47.2414 78.8785C45.3901 77.3251 43.0429 76.5808 40.6261 76.7923C35.6558 77.2271 31.9525 81.6405 32.3874 86.6109C32.8235 91.5964 37.2204 95.2858 42.1907 94.851C44.6075 94.6395 46.7898 93.499 48.3433 91.6477L76.4868 58.1243L83.4292 63.9497L55.2857 97.4731C52.3037 101.027 47.9662 103.443 42.9806 103.88C33.0096 104.752 24.2158 97.3732 23.3421 87.3869C22.4685 77.4006 29.8486 68.6221 39.8197 67.7497C44.8052 67.3136 49.4964 68.9402 53.0503 71.9222L47.2414 78.8785Z" fill="#3DD2CC"/>
<path d="M47.2414 78.8785L48.3649 77.5396C46.1651 75.6797 43.3307 74.7943 40.458 75.0456C34.5149 75.5656 30.1042 80.822 30.6242 86.7651C31.1441 92.7083 36.3853 97.1202 42.3284 96.6003C42.7996 96.5591 43.2245 96.3381 43.5144 95.9758C43.8196 95.6121 43.9634 95.1554 43.9235 94.6994L42.1755 94.8523L42.3284 96.6003C45.2012 96.349 47.8236 94.9861 49.6835 92.7864L76.7022 60.5867L80.9503 64.1513L53.9468 96.3496C51.2408 99.5577 47.342 101.737 42.8277 102.132C42.0221 102.202 41.3569 102.827 41.2437 103.633C41.1304 104.44 41.5822 105.227 42.3424 105.513L42.9806 103.88L42.8277 102.132C33.8129 102.905 25.8939 96.2461 25.0901 87.234C24.3167 78.2192 30.9756 70.3002 39.9726 69.4977C44.4869 69.1028 48.7049 70.5717 51.9268 73.2611L53.0503 71.9222L51.7114 70.7988L45.886 77.7412L47.2414 78.8785L48.3649 77.5396L47.2414 78.8785L48.5803 80.002L54.4057 73.0596C55.0298 72.3157 54.9328 71.2062 54.1889 70.582C50.3031 67.3074 45.1387 65.523 39.6667 66.0018C28.7229 66.9592 20.6367 76.596 21.5941 87.5398C22.5516 98.4837 32.1897 106.585 43.1336 105.628C43.9391 105.557 44.6043 104.932 44.7176 104.126C44.8308 103.32 44.379 102.532 43.6188 102.246L42.9806 103.88L43.1336 105.628C48.6055 105.149 53.3665 102.496 56.6398 98.5952L84.7681 65.0732C85.0594 64.7261 85.2171 64.2528 85.1772 63.7968C85.1373 63.3408 84.915 62.9008 84.5527 62.6108L77.6102 56.7854C76.8664 56.1613 75.7568 56.2584 75.1327 57.0022L47.0043 90.5242C45.727 92.0298 43.9986 92.9315 42.0378 93.103C41.5818 93.1429 41.1418 93.3652 40.8518 93.7275C40.5619 94.0898 40.4028 94.5479 40.4427 95.0039L42.1907 94.851L42.0378 93.103C38.025 93.4541 34.4712 90.472 34.1353 86.458C33.7842 82.4452 36.7663 78.8913 40.779 78.5403C42.7398 78.3687 44.6137 78.9553 46.1179 80.2174C46.4816 80.5226 46.9383 80.6664 47.3943 80.6265C47.8655 80.5853 48.2904 80.3643 48.5803 80.002L47.2414 78.8785Z" fill="#3DD2CC"/>
<path d="M122.792 85.1343C124.658 86.6864 126.99 87.432 129.407 87.2205C134.393 86.7843 138.081 82.3723 137.646 77.4019C137.21 72.4164 132.813 68.727 127.826 69.148C125.409 69.3594 123.227 70.4999 121.673 72.3513L93.5313 105.89L86.5888 100.064L114.732 66.5411C117.714 62.9872 122.067 60.5693 127.053 60.1332C137.039 59.2595 145.817 66.6396 146.691 76.6259C147.563 86.597 140.185 95.3907 130.214 96.2631C125.228 96.6992 120.537 95.0726 116.983 92.0906L122.792 85.1343Z" fill="#3DD2CC"/>
<path d="M122.792 85.1343L121.668 86.4731C123.868 88.3331 126.702 89.2185 129.575 88.9671C135.518 88.4472 139.929 83.1908 139.409 77.2477C138.889 71.3045 133.648 66.8925 127.688 67.3986C127.217 67.4399 126.792 67.6608 126.502 68.0231C126.197 68.3868 126.053 68.8435 126.093 69.2995L127.841 69.1466L127.688 67.3986C124.815 67.65 122.193 69.0128 120.334 71.2278L93.3155 103.427L89.0674 99.8628L116.071 67.6645C118.777 64.4564 122.691 62.2761 127.189 61.8672C127.964 61.7994 128.589 61.2393 128.753 60.4898C128.917 59.7402 128.558 58.9599 127.882 58.5902L127.036 60.1193L127.189 61.8672C136.205 61.1091 144.123 67.7528 144.926 76.7649C145.7 85.7797 139.056 93.6974 130.044 94.5012C125.529 94.8961 121.312 93.4272 118.09 90.7378L116.966 92.0767L118.305 93.2002L124.13 86.2577L122.792 85.1343L121.668 86.4731L122.792 85.1343L121.453 84.0108L115.627 90.9532C115.322 91.3169 115.178 91.7736 115.218 92.2296C115.259 92.7008 115.48 93.1256 115.843 93.4156C119.742 96.6737 124.893 98.4746 130.364 97.9806C141.307 97.0232 149.394 87.3864 148.436 76.4425C147.479 65.4987 137.841 57.3973 126.897 58.3547C126.122 58.4226 125.497 58.9827 125.332 59.7322C125.168 60.4817 125.528 61.2621 126.203 61.6318L127.05 60.1027L126.897 58.3547C121.44 58.8322 116.664 61.4862 113.39 65.3872L85.247 98.9105C84.6228 99.6544 84.7199 100.764 85.4637 101.388L92.4061 107.213C93.15 107.838 94.2596 107.741 94.8837 106.997L123.013 73.4899C124.291 71.9844 126.019 71.0827 127.979 70.8959C128.435 70.856 128.875 70.6337 129.165 70.2714C129.455 69.9091 129.614 69.451 129.574 68.995L127.826 69.1479L127.979 70.8959C131.991 70.5448 135.545 73.5269 135.898 77.5548C136.249 81.5676 133.265 85.1062 129.254 85.4725C127.293 85.6441 125.434 85.0562 123.915 83.7954C123.171 83.1712 122.062 83.2683 121.437 84.0121L122.792 85.1343Z" fill="#3DD2CC"/>
<path d="M43.9686 115.173L45.7166 115.02L43.9686 115.173L44.1215 116.921C51.615 116.265 58.4806 112.984 63.6816 107.659L62.426 106.436L61.3025 107.775L63.7324 109.814L64.8558 108.475L63.4337 107.451C59.0922 113.498 57.0698 120.843 57.7254 128.336C59.2254 145.481 74.3844 158.215 91.545 156.714C108.706 155.213 121.423 140.04 119.923 122.894C119.267 115.401 115.971 108.537 110.661 103.334L109.438 104.59L110.777 105.713L112.816 103.284L111.477 102.16L110.453 103.582C116.5 107.924 123.86 109.945 131.353 109.289C148.483 107.791 161.216 92.6164 159.716 75.471C158.215 58.3105 143.042 45.593 125.895 47.0778C125.439 47.1177 124.999 47.34 124.709 47.7024C124.419 48.0647 124.26 48.5228 124.3 48.9788L126.048 48.8258L125.895 47.0778C118.402 47.7334 111.536 51.0144 106.335 56.34L107.591 57.5626L108.714 56.2237L106.284 54.1849L105.161 55.5238L106.583 56.548C110.924 50.5012 112.945 43.1411 112.291 35.6628C110.791 18.5175 95.617 5.78483 78.4716 7.28486C61.311 8.78621 48.5936 23.9591 50.0936 41.1044C50.1335 41.5604 50.3558 42.0005 50.7181 42.2904C51.0804 42.5803 51.5385 42.7394 51.9945 42.6995L51.8416 40.9515L50.0936 41.1044C50.7492 48.5979 54.0302 55.4635 59.3558 60.6646L60.5784 59.4089L59.2395 58.2854L57.2006 60.7153L58.5395 61.8387L59.5638 60.4166C53.5157 56.0599 46.1569 54.054 38.6634 54.7096C21.518 56.2097 8.78538 71.3838 10.2854 88.5292C11.7868 105.69 26.9596 118.407 44.1063 116.922C44.5623 116.883 45.0023 116.66 45.2923 116.298C45.5822 115.936 45.7413 115.477 45.7014 115.021L43.9686 115.173L43.8157 113.425C28.598 114.726 15.1594 103.45 13.7979 88.2372C12.4972 73.0196 23.7734 59.581 38.9858 58.2195C45.6585 57.6357 52.1408 59.4272 57.5331 63.2899C58.2841 63.8215 59.3151 63.7007 59.8963 62.9913L61.9351 60.5614C62.5177 59.8672 62.4715 58.8144 61.8189 58.1823C57.0785 53.5427 54.1747 47.4865 53.5922 40.829C53.5523 40.373 53.33 39.9329 52.9677 39.643C52.6054 39.3531 52.1473 39.194 51.6913 39.2339L51.8442 40.9819L53.5922 40.829C52.2901 25.5961 63.5664 12.1576 78.7788 10.796C93.9964 9.49527 107.45 20.7702 108.797 35.9839C109.38 42.6566 107.589 49.1389 103.726 54.5312C103.194 55.2822 103.315 56.3132 104.025 56.8944L106.455 58.9333C107.149 59.5158 108.202 59.4697 108.834 58.817C113.473 54.0766 119.53 51.1728 126.187 50.5903C126.643 50.5504 127.083 50.3281 127.373 49.9658C127.663 49.6035 127.822 49.1454 127.782 48.6894L126.034 48.8424L126.187 50.5903C141.42 49.2883 154.858 60.5646 156.22 75.7769C157.521 90.9946 146.244 104.433 131.032 105.795C124.359 106.378 117.877 104.587 112.485 100.724C111.734 100.193 110.704 100.329 110.122 101.023L108.083 103.453C107.5 104.147 107.546 105.2 108.199 105.832C112.938 110.456 115.843 116.528 116.426 123.185C117.728 138.418 106.451 151.857 91.2391 153.218C76.0214 154.519 62.5829 143.243 61.2213 128.03C60.6375 121.357 62.4278 114.86 66.2766 109.484C66.8082 108.733 66.6874 107.702 65.978 107.121L63.5481 105.082C62.8539 104.5 61.8011 104.546 61.169 105.198C56.5294 109.939 50.4732 112.843 43.8157 113.425C43.3597 113.465 42.9196 113.687 42.6297 114.05C42.3397 114.412 42.1807 114.87 42.2206 115.326L43.9686 115.173L43.8157 113.425L43.9686 115.173Z" fill="#3DD2CC"/>
<path d="M88.1374 44.2394C89.6908 42.3881 90.4351 40.0409 90.2236 37.6241C89.7888 32.6538 85.3754 28.9505 80.4051 29.3854C75.4347 29.8202 71.7301 34.2184 72.1663 39.204C72.3777 41.6207 73.5183 43.803 75.3696 45.3565L108.907 73.4835L103.081 80.4259L69.5428 52.2837C65.989 49.3017 63.5725 44.9642 63.1363 39.9787C62.2639 30.0076 69.6428 21.2138 79.6138 20.3415C89.6001 19.4678 98.3786 26.848 99.251 36.819C99.6872 41.8046 98.0606 46.4958 95.0785 50.0496L88.1374 44.2394Z" fill="#3DD2CC"/>
<path d="M88.1375 44.2394L89.4764 45.3629C91.3211 43.1644 92.2217 40.3287 91.9565 37.4725C91.4365 31.5294 86.1801 27.1187 80.237 27.6387C74.2939 28.1586 69.8819 33.3999 70.4032 39.3582C70.4444 39.8294 70.6654 40.2542 71.0277 40.5442C71.3913 40.8493 71.8481 40.9931 72.3041 40.9532L72.1512 39.2053L70.4032 39.3582C70.6545 42.2309 72.0173 44.8533 74.2171 46.7132L106.429 73.7002L102.866 77.9635L70.6816 50.9435C67.4583 48.2388 65.2793 44.34 64.8843 39.8257C64.8125 39.0049 64.1889 38.3549 63.3826 38.2417C62.5763 38.1284 61.79 38.5954 61.5043 39.3556L63.1515 39.9773L64.8995 39.8244C64.1261 30.8096 70.7851 22.8906 79.782 22.0881C88.7968 21.3147 96.7158 27.9736 97.5183 36.9706C97.9132 41.4849 96.4443 45.7029 93.7549 48.9248L95.0938 50.0483L96.2172 48.7094L89.2748 42.884L88.1375 44.2394L89.4764 45.3629L88.1375 44.2394L87.014 45.5783L93.9564 51.4037C94.7003 52.0279 95.8099 51.9308 96.434 51.1869C99.7086 47.3012 101.493 42.1367 101.014 36.6647C100.057 25.7209 90.42 17.6347 79.4762 18.5922C68.5323 19.5496 60.4461 29.1864 61.4036 40.1302C61.4754 40.951 62.0989 41.601 62.9053 41.7143C63.7116 41.8275 64.4978 41.3605 64.7836 40.6003L63.1363 39.9786L61.3884 40.1316C61.8671 45.6035 64.5198 50.3645 68.4208 53.6378L101.944 81.7813C102.308 82.0865 102.765 82.2303 103.221 82.1904C103.692 82.1492 104.117 81.9282 104.407 81.5659L110.232 74.6235C110.856 73.8796 110.759 72.77 110.015 72.1459L76.4918 44.0024C74.9862 42.725 74.0832 40.9814 73.8978 39.0371C73.8579 38.5811 73.6356 38.1411 73.2733 37.8512C72.911 37.5612 72.4529 37.4022 71.9969 37.4421L72.1498 39.1901L73.8978 39.0371C73.5467 35.0244 76.5301 31.4857 80.5415 31.1194C84.5543 30.7684 88.1081 33.7504 88.4592 37.7632C88.6307 39.7239 88.0442 41.5979 86.782 43.1021C86.1579 43.8459 86.255 44.9555 86.9988 45.5796L88.1375 44.2394Z" fill="#3DD2CC"/>
<path d="M83.4444 63.9484L82.3209 65.2873L100.619 80.6413L86.3873 97.5855L69.4292 83.3701L84.7833 65.0718L83.4444 63.9484L82.3209 65.2873L83.4444 63.9484L82.1055 62.8249L65.628 82.4621C65.3367 82.8092 65.179 83.2825 65.2189 83.7385C65.2588 84.1945 65.4811 84.6345 65.8434 84.9244L85.4819 101.417C86.2257 102.041 87.3353 101.944 87.9595 101.2L104.437 81.5632C105.061 80.8194 104.964 79.7098 104.22 79.0857L84.5666 62.5943C84.2194 62.303 83.7462 62.1453 83.2902 62.1852C82.8342 62.2251 82.3941 62.4474 82.1042 62.8097L83.4444 63.9484Z" fill="#3DD2CC"/>
</g>
<defs>
<filter id="filter0_d_12_75" x="0.165527" y="1.16479" width="169.67" height="169.669" filterUnits="userSpaceOnUse" color-interpolation-filters="sRGB">
<feFlood flood-opacity="0" result="BackgroundImageFix"/>
<feColorMatrix in="SourceAlpha" type="matrix" values="0 0 0 0 0 0 0 0 0 0 0 0 0 0 0 0 0 0 127 0" result="hardAlpha"/>
<feOffset dy="4"/>
<feGaussianBlur stdDeviation="5"/>
<feComposite in2="hardAlpha" operator="out"/>
<feColorMatrix type="matrix" values="0 0 0 0 0.239216 0 0 0 0 0.823529 0 0 0 0 0.8 0 0 0 0.2 0"/>
<feBlend mode="normal" in2="BackgroundImageFix" result="effect1_dropShadow_12_75"/>
<feBlend mode="normal" in="SourceGraphic" in2="effect1_dropShadow_12_75" result="shape"/>
</filter>
</defs>
</svg>
